<svg style="position: absolute; width: 0; height: 0; overflow: hidden;" version="1.1"
xmlns="http://www.w3.org/2000/svg"
xmlns:xlink="http://www.w3.org/1999/xlink">

<defs>


<symbol id="icon-dropdown" viewBox="0 0 50 50">
  <path d="M2 13.5h46l-23 23z"/>
</symbol>


<symbol id="icon-window" viewBox="0 0 50 50">
  <path d="M2 2v20h20V2H2zm26 0v20h20V2H28zM2 28v20h20V28H2zm26 0v20h20V28H28z"/>
</symbol>


<symbol id="icon-selector" viewBox="0 0 50 50">
  <path d="M25.18 2c-.52 0-1.03.18-1.43.58L9.8 16.22c-.8.78-.83 2.06-.04 2.85.77.8 2.05.8 2.84.02L25.13 6.84 37.37 19.4c.78.78 2.04.8 2.83.02.42-.38.62-.9.62-1.43 0-.52-.2-1.03-.57-1.42L26.6 2.6c-.4-.4-.9-.6-1.42-.6zM11.22 30c-.5 0-1.03.18-1.42.58-.42.38-.62.9-.62 1.43 0 .52.2 1.03.57 1.42L23.4 47.4c.78.78 2.06.8 2.85.02L40.2 33.78c.8-.78.83-2.06.04-2.85-.77-.8-2.05-.8-2.84-.02L24.87 43.16 12.63 30.6c-.4-.4-.9-.6-1.4-.6z"/>
</symbol>


<symbol id="icon-search" viewBox="0 0 50 50">
  <path d="M19.83.4C9.5.4 1.1 8.83 1.1 19.16S9.5 37.9 19.83 37.9c4.75 0 9.08-1.8 12.4-4.72C46.04 48.08 47.3 49.4 47.3 49.4l2.12-2.1s-1-1.1-15.1-16.28c2.66-3.23 4.25-7.37 4.25-11.87C38.57 8.82 30.17.4 19.83.4zm0 3.02c8.7 0 15.73 7.03 15.73 15.73s-7.02 15.73-15.73 15.73c-8.7 0-15.73-7.02-15.73-15.73 0-8.7 7.03-15.73 15.73-15.73z"/>
</symbol>


<symbol id="icon-search-fat" viewBox="0 0 50 50">
  <path d="M20.72 2C10.82 2 2.8 10.2 2.8 20.2S10.8 38.4 20.7 38.4c3.88 0 7.44-1.28 10.38-3.4l12.25 13 3.86-3.64-12.33-13.12c2.33-3.07 3.78-6.87 3.78-11.03 0-10-8.03-18.2-17.93-18.2zm0 5.3c6.98 0 12.62 5.72 12.62 12.9 0 7.2-5.64 12.9-12.62 12.9-6.98 0-12.63-5.7-12.63-12.9 0-7.18 5.64-12.9 12.62-12.9z"/>
</symbol>


<symbol id="icon-bell" viewBox="0 0 50 50">
  <path d="M26.93 4.43l.04-2.1C27 1.55 26.4.92 25.6.92c-.75 0-1.4.6-1.4 1.36l-.04 2.1C14.84 5 7.3 12.62 7.1 21.98l-.28 13.15L.15 41.5c-.9.86-.32 2.35.93 2.36l16.1.17c.58 3.52 3.63 6.22 7.36 6.26 3.75.03 6.9-2.6 7.64-6.1l16.1.18c.78 0 1.42-.6 1.44-1.36 0-.43-.2-.82-.5-1.08l-6.3-6.4.3-13.16c.2-9.36-7-17.14-16.3-17.95m-2.3 43.12c-2.2-.02-4.04-1.5-4.6-3.48l9.32.1c-.64 1.98-2.54 3.4-4.73 3.38m15.83-25.2l-.3 13.72c0 .36.13.7.38.96L45 41.6l-14-.15-12.5-.14-14-.14 4.66-4.46c.26-.26.42-.6.43-.98l.28-13.7c.18-8.32 7.18-15 15.6-14.9 8.43.07 15.13 6.9 14.95 15.23"/>
</symbol>


<symbol id="icon-home" viewBox="0 0 50 50">
  <path  d="M49.36 21.35L25.92.37c-.55-.5-1.3-.5-1.84 0L.64 21.35c-1.9 2 .43 2.82 1.84 1.6l3.1-2.65v27.78c0 1.06.7 1.92 1.55 1.92h12.62c.86 0 1.56-.86 1.56-1.92V29h7.4V48.1c0 1.06.7 1.92 1.55 1.92h12.62c.86 0 1.56-.86 1.56-1.92V20.3l3.1 2.66c1.9 1.84 3.45-.12 1.83-1.6zm-7.77 25.8H31.52V28.1c0-1.07-.4-1.93-1.28-1.93h-10.5c-.87 0-1.27.86-1.28 1.92v19.06H8.4V17.8L25 2.84 41.6 17.8z"/>
</symbol>


<symbol id="icon-home-fat" viewBox="0 0 50 50">
  <path d="M48.34 21.5L25.9 1.4c-.53-.48-1.25-.48-1.77 0L1.68 21.5c-1.8 1.9.42 2.7 1.77 1.53l2.97-2.54v26.6c0 1 .67 1.83 1.48 1.83H20c.8 0 1.48-.82 1.48-1.84V28.8h7.1v18.3c0 1 .66 1.83 1.47 1.83h12.1c.8 0 1.48-.82 1.48-1.84V20.5l2.97 2.54c1.82 1.76 3.3-.12 1.75-1.54z"/>
</symbol>


<symbol id="icon-menu" viewBox="0 0 50 50">
  <path  d="M2.53 7.8h45c1.38 0 2.5-1.1 2.5-2.5 0-1.37-1.12-2.5-2.5-2.5h-45C1.15 2.8.03 3.94.03 5.3c0 1.4 1.12 2.5 2.5 2.5zm45 35h-45c-1.38 0-2.5 1.13-2.5 2.5 0 1.4 1.12 2.5 2.5 2.5h45c1.38 0 2.5-1.1 2.5-2.5 0-1.37-1.12-2.5-2.5-2.5zm0-20h-45c-1.38 0-2.5 1.13-2.5 2.5 0 1.4 1.12 2.5 2.5 2.5h45c1.38 0 2.5-1.1 2.5-2.5 0-1.37-1.12-2.5-2.5-2.5z"/>
</symbol>


<symbol id="icon-h-dots" viewBox="0 0 50 50">
  <path d="M5 20a5 5 0 0 0-5 5 5 5 0 0 0 5 5 5 5 0 0 0 5-5 5 5 0 0 0-5-5zm20 0a5 5 0 0 0-5 5 5 5 0 0 0 5 5 5 5 0 0 0 5-5 5 5 0 0 0-5-5zm20 0a5 5 0 0 0-5 5 5 5 0 0 0 5 5 5 5 0 0 0 5-5 5 5 0 0 0-5-5z"/>
</symbol>



<symbol id="icon-v-dots" viewBox="0 0 50 50">
  <path d="M30 5a5 5 0 0 0-5-5 5 5 0 0 0-5 5 5 5 0 0 0 5 5 5 5 0 0 0 5-5zm0 20a5 5 0 0 0-5-5 5 5 0 0 0-5 5 5 5 0 0 0 5 5 5 5 0 0 0 5-5zm0 20a5 5 0 0 0-5-5 5 5 0 0 0-5 5 5 5 0 0 0 5 5 5 5 0 0 0 5-5z"/>
</symbol>



<symbol id="icon-h-dots2" viewBox="0 0 50 50">
  <path d="M6.5 18.5A6.5 6.5 0 0 0 0 25a6.5 6.5 0 0 0 6.5 6.5A6.5 6.5 0 0 0 13 25a6.5 6.5 0 0 0-6.5-6.5zm18.5 0a6.5 6.5 0 0 0-6.5 6.5 6.5 6.5 0 0 0 6.5 6.5 6.5 6.5 0 0 0 6.5-6.5 6.5 6.5 0 0 0-6.5-6.5zm18.5 0A6.5 6.5 0 0 0 37 25a6.5 6.5 0 0 0 6.5 6.5A6.5 6.5 0 0 0 50 25a6.5 6.5 0 0 0-6.5-6.5z"/>
</symbol>


<symbol id="icon-v-dots2" viewBox="0 0 50 50">
  <path d="M31.5 6.5A6.5 6.5 0 0 0 25 0a6.5 6.5 0 0 0-6.5 6.5A6.5 6.5 0 0 0 25 13a6.5 6.5 0 0 0 6.5-6.5zm0 18.5a6.5 6.5 0 0 0-6.5-6.5 6.5 6.5 0 0 0-6.5 6.5 6.5 6.5 0 0 0 6.5 6.5 6.5 6.5 0 0 0 6.5-6.5zm0 18.5A6.5 6.5 0 0 0 25 37a6.5 6.5 0 0 0-6.5 6.5A6.5 6.5 0 0 0 25 50a6.5 6.5 0 0 0 6.5-6.5z"/>
</symbol>


<symbol id="icon-del" viewBox="0 0 50 50">
    <path d="M41.93 4.54H30.45c.1-.36.2-.73.2-1.13 0-1.87-1.27-3.4-2.83-3.4h-5.64c-1.56 0-2.82 1.53-2.82 3.4 0 .4.08.78.2 1.14H8.05c-1.55 0-2.8 1.53-2.8 3.4 0 1.9 1.25 3.42 2.8 3.42h.95v34.1c0 2.5 1.7 4.54 3.77 4.54h24.45C39.3 50 41 47.96 41 45.46v-34.1h.92c1.56 0 2.83-1.52 2.83-3.4 0-1.9-1.26-3.42-2.82-3.42zM22.18 2.27h5.64c.52 0 .94.5.94 1.14 0 .64-.42 1.14-.94 1.14h-5.64c-.52 0-.94-.5-.94-1.13 0-.62.42-1.13.94-1.13zm16.93 43.2c0 1.24-.84 2.25-1.87 2.25H12.77c-1.03 0-1.88-1-1.88-2.26v-34.1h28.2v34.1zm2.83-36.38H8.07c-.52 0-.94-.52-.94-1.15 0-.62.42-1.13.94-1.13h33.86c.52 0 .94.5.94 1.13 0 .63-.42 1.14-.94 1.14zm-25.4 28.4h16.93c.52 0 .94-.5.94-1.14 0-.62-.42-1.14-.94-1.14H16.54c-.53 0-.94.52-.94 1.14 0 .63.4 1.14.94 1.14zm0-6.82h16.93c.52 0 .94-.5.94-1.13 0-.63-.42-1.14-.94-1.14H16.54c-.53 0-.94.52-.94 1.15 0 .62.4 1.13.94 1.13zm0-6.82h16.93c.52 0 .94-.5.94-1.13 0-.63-.42-1.14-.94-1.14H16.54c-.53 0-.94.5-.94 1.13 0 .62.4 1.13.94 1.13z"/>
</symbol>


<symbol id="icon-cross" viewBox="0 0 50 50">
  <path d="M41.58 7L25 23.6 8.4 7.04 7 8.43 23.6 25 7.04 41.6l1.4 1.4L25 26.4l16.6 16.57 1.4-1.4L26.4 25 42.96 8.4z"/>
</symbol>


<symbol id="icon-cross-bg" viewBox="0 0 50 50">
  <path d="M47.57.5L25 23.1 2.4.55.5 2.44 23.1 25 .55 47.6l1.9 1.9L25 26.9l22.6 22.56 1.9-1.9L26.9 25 49.45 2.4z"/>
</symbol>


<symbol id="icon-right-angle" viewBox="0 0 50 50">
  <path d="M29.72 25.14L15.8 10.88c-.9-.9-.88-2.35.02-3.23.9-.9 2.35-.86 3.24.04l15.52 15.88c.9.9.87 2.36-.03 3.24l-15.9 15.53c-.44.43-1.02.65-1.6.65-.6 0-1.2-.23-1.63-.7-.9-.9-.87-2.34.03-3.22z"/>
</symbol>


<symbol id="icon-stats" viewBox="0 0 50 50">
  <path d="M43.1 2a5.76 5.76 0 0 0-5.75 5.76 5.76 5.76 0 0 0 2.3 4.58L32.2 32.07a5.76 5.76 0 0 0-1.08-.1 5.76 5.76 0 0 0-1.18.12l-5.88-10.85a5.76 5.76 0 0 0 .86-3.02 5.76 5.76 0 0 0-5.76-5.76 5.76 5.76 0 0 0-5.76 5.76 5.76 5.76 0 0 0 1.24 3.56L8.1 36.6a5.76 5.76 0 0 0-1.2-.12 5.76 5.76 0 0 0-5.77 5.76A5.76 5.76 0 0 0 6.9 48a5.76 5.76 0 0 0 5.75-5.76 5.76 5.76 0 0 0-1.68-4.06l6.4-14.48a5.76 5.76 0 0 0 1.8.3 5.76 5.76 0 0 0 2.37-.53l5.52 10.16a5.76 5.76 0 0 0-1.7 4.1 5.76 5.76 0 0 0 5.76 5.75 5.76 5.76 0 0 0 5.76-5.76 5.76 5.76 0 0 0-1.76-4.13l7.57-20.1a5.76 5.76 0 0 0 .4.02 5.76 5.76 0 0 0 5.77-5.76A5.76 5.76 0 0 0 43.1 2z"/>
</symbol>


<symbol id="icon-plus-fat" viewBox="0 0 50 50">
  <path d="M48.6 18.8H31.34V1.58c0-.87-.7-1.57-1.57-1.57h-9.4c-.87 0-1.57.7-1.57 1.57V18.8H1.58C.7 18.8 0 19.5 0 20.38v9.4c0 .87.7 1.58 1.57 1.58H18.8V48.6c0 .85.7 1.55 1.57 1.55h9.4c.87 0 1.58-.7 1.58-1.56V31.34H48.6c.85 0 1.55-.7 1.55-1.57v-9.4c0-.87-.7-1.57-1.56-1.57z"/>
<symbol>

<symbol id="icon-plus" viewBox="0 0 50 50">
  <path d="M48.6 23.58H26.4v-22c0-.88.16-1.58-.7-1.58h-1.33c-.88 0-.82.7-.82 1.57v22h-22c-.88 0-1.58-.15-1.58.72v1.3c0 .88.7.82 1.57.82h22V48.6c0 .85-.05 1.4.82 1.4h1.3c.88 0 .72-.55.72-1.4V26.4H48.6c.85 0 1.55.06 1.55-.8v-1.33c0-.88-.7-.72-1.56-.72z"/>
</symbol>


<symbol id="icon-arrow-up" viewBox="0 0 50 50">
    <path d="M42.94 19.63L26.8 3.9c-1.23-1.2-3.2-1.2-4.43 0L6.65 19.64c-1.98 2.4.53 3.55 1.9 2.13L23.18 7.13v36.73c0 1.73-.32 3.14 1.42 3.14 1.73 0 1.3-1.4 1.4-3.14V7.13l15.33 14.63c1.48 1.43 4.1.43 1.6-2.13z"/>
</symbol>


<symbol id="icon-arrow-right" viewBox="0 0 50 50">
    <path d="M30.3 43l15.73-16.13c1.2-1.25 1.23-3.22 0-4.45L30.3 6.72c-2.38-2-3.53.52-2.12 1.9l14.63 14.6H6.1c-1.75 0-3.15-.3-3.15 1.43s1.4 1.32 3.14 1.42h36.7L28.2 41.37c-1.42 1.5-.42 4.12 2.13 1.62"/>
</symbol>


<symbol id="icon-arrow-down" viewBox="0 0 50 50">
    <path d="M6.95 30.37L23.08 46.1c1.24 1.2 3.2 1.2 4.44 0l15.72-15.73c1.98-2.4-.53-3.55-1.9-2.13L26.7 42.87V6.14c0-1.73.32-3.14-1.42-3.14s-1.32 1.4-1.42 3.14v36.73L8.58 28.24c-1.5-1.43-4.13-.43-1.63 2.13z"/>
</symbol>


<symbol id="icon-arrow-left" viewBox="0 0 50 50">
    <path d="M19.58 7L3.86 23.14c-1.2 1.25-1.23 3.22 0 4.45l15.72 15.7c2.4 2 3.54-.52 2.13-1.9L7.1 26.78H43.8c1.74 0 3.15.3 3.15-1.43s-1.4-1.32-3.15-1.42H7.08L21.7 8.63c1.43-1.5.43-4.12-2.12-1.62"/>
</symbol>


<symbol id="icon-arrow-up2" viewBox="0 0 32 32">
  <path d="M27.4 12.6l-10-10c-.77-.8-2.03-.8-2.8 0l-10 10c-.8.77-.8 2.03 0 2.8s2.03.8 2.8 0L14 8.84V28c0 1.1.9 2 2 2s2-.9 2-2V8.83l6.6 6.58c.38.4.9.6 1.4.6s1.02-.2 1.4-.6c.8-.77.8-2.03 0-2.8z"/>
</symbol>


<symbol id="icon-arrow-right2" viewBox="0 0 32 32">
  <path d="M19.4 27.4l10-10c.8-.77.8-2.03 0-2.8l-10-10c-.77-.8-2.03-.8-2.8 0s-.8 2.03 0 2.8l6.57 6.6H4c-1.1 0-2 .9-2 2s.9 2 2 2h19.17l-6.58 6.6c-.4.38-.6.9-.6 1.4s.2 1.02.6 1.4c.77.8 2.03.8 2.8 0z"/>
</symbol>


<symbol id="icon-arrow-down2" viewBox="0 0 32 32">
  <path d="M27.4 19.4l-10 10c-.77.8-2.03.8-2.8 0l-10-10c-.8-.77-.8-2.03 0-2.8s2.03-.8 2.8 0l6.6 6.57V4c0-1.1.9-2 2-2s2 .9 2 2v19.17l6.6-6.58c.38-.4.9-.6 1.4-.6s1.02.2 1.4.6c.8.77.8 2.03 0 2.8z"/>
</symbol>


<symbol id="icon-arrow-left2" viewBox="0 0 32 32">
  <path d="M12.6 27.4l-10-10c-.8-.77-.8-2.03 0-2.8l10-10c.77-.8 2.03-.8 2.8 0s.8 2.03 0 2.8L8.84 14H28c1.1 0 2 .9 2 2s-.9 2-2 2H8.83l6.58 6.6c.4.38.6.9.6 1.4s-.2 1.02-.6 1.4c-.77.8-2.03.8-2.8 0z"/>
</symbol>


<symbol id="icon-week" viewBox="0 0 50 50">
  <path d="M8.16 0c-.8.1-1.5.96-1.5 1.88v4.37h-5C.8 6.25 0 7.15 0 8.13v40C0 49.1.8 50 1.67 50h46.66c.88 0 1.67-.9 1.67-1.87v-40c0-.92-.68-1.78-1.5-1.88h-5.17V1.88c0-.92-.68-1.78-1.5-1.88H33.9C33 0 32.2.9 32.2 1.88v4.37H17.78V1.88C17.78.9 16.98 0 16.1 0H8.17zM9.5 2.84h5.44v3.4H9.5zm25.56 0h5.43V5.5h-5.44zM2.84 9.1h44.32v5.06H2.84zm0 7.9h44.32v30.16H2.84zm30.94 3.63c-.54-2.45-1-1.87-1-1.25v5c0 .65.53 1.25 1.1 1.25h7.8c.57 0 1.1-.6 1.1-1.25v-5c0-.62-.46-1.2-1-1.25H33.77v2.5zM8.23 30c-.55-2.44-1-1.87-1-1.25v5c0 .66.52 1.25 1.1 1.25h7.78c.6 0 1.12-.6 1.12-1.25v-5c0-.65-.53-1.25-1.1-1.25H8.2V30zM21 30c-.54-2.44-1-1.87-1-1.25v5c0 .66.53 1.25 1.1 1.25h7.8c.57 0 1.1-.6 1.1-1.25v-5c0-.65-.53-1.25-1.1-1.25H21V30zm12.78 0c-.54-2.44-1-1.87-1-1.25v5c0 .66.53 1.25 1.1 1.25h7.8c.57 0 1.1-.6 1.1-1.25v-5c0-.65-.53-1.25-1.1-1.25H33.77V30zM8.23 39.38c-.55-2.45-1-1.87-1-1.25v5c0 .65.52 1.25 1.1 1.25h7.78c.6 0 1.12-.6 1.12-1.25v-5c0-.66-.53-1.25-1.1-1.25H8.2v2.5z"/>
</symbol>


<symbol id="icon-project" viewBox="0 0 50 50">
  <path d="M24.2 12.04h-5V10.5h5zm16.12 1.42H19.2V15h21.12v-1.54zm0 2.95H19.2v1.55h21.12V16.4zM50 24.34v.12l-3.05 20.82c-.03 1.1-.9 1.97-1.95 1.97H4.4c-1.06 0-1.93-.88-1.96-1.98L0 27.3c0-1.14.88-2.05 1.96-2.05h.48v-10.2c0-1.1.88-2.03 1.96-2.03h10.8V2.76h21.5l7.75 8.07v2.2H45c1.08 0 1.95.9 1.95 2.03v7.24h1.1c1.07 0 1.95.9 1.95 2.03zm-5.55-9.76v7.73h1.02v-7.24c0-.27-.2-.5-.48-.5zM37.12 5.4v4.98h4.8zM16.68 4.3v20.95h8.6l.83-1.4c.93-1.53-.82 1.4.94-1.55v.02-.02h15.93V11.92h-6.6l-.73-.77V4.3H16.68zm-1.5 20.95c-10.44 16.62-5.22 8.3 0 0zm-11.26 0H15.2c.08-11.67 0 1.35 0-10.68H4.4c-.26 0-.48.22-.48.5zm44.6-.96c-.03-.26-.23-.46-.48-.46H27.87L26.1 26.8H1.97c-.25 0-.45.2-.47.44L3.9 45.2c0 .27.22.5.48.5H45c.26 0 .47-.23.47-.5v-.12l3.04-20.8z"/>
</symbol>


<symbol id="icon-open-link" viewBox="0 0 50 50">
  <path d="M38.7 3.85c-.53 0-1.05.27-1.36.75-.5.76-.27 1.78.5 2.27l5.94 3.87C28.94 12.97 23.2 28.38 22.96 29.07c-.3.85.13 1.78.98 2.1.2.06.37.1.56.1.67 0 1.3-.43 1.54-1.1.06-.15 5.55-14.5 18.9-16.16l-4.23 6.5c-.5.76-.27 1.77.5 2.27.27.18.58.26.9.26.52 0 1.05-.26 1.36-.74l6.27-9.65c.24-.36.33-.8.23-1.23-.1-.43-.34-.8-.7-1.04L39.6 4.12c-.28-.2-.6-.27-.92-.27zM7.4 9.62C3.3 9.62 0 12.92 0 17v21.26c0 4.07 3.32 7.38 7.4 7.38h34.2c4.08 0 7.4-3.3 7.4-7.38v-8.64c0-.9-.74-1.64-1.65-1.64-.9 0-1.64.73-1.64 1.64v8.64c0 2.26-1.83 4.1-4.1 4.1H7.4c-2.27 0-4.1-1.84-4.1-4.1V17c0-2.26 1.83-4.1 4.1-4.1h19.16c.9 0 1.64-.73 1.64-1.64 0-.9-.73-1.64-1.64-1.64H7.4z"/>
</symbol>


<symbol id="icon-check" viewBox="0 0 50 50">
  <path d="M39.92 11.57l-21.3 20.67-8.55-8.28L7 27.14 18.64 38.4 43 14.74z"/>
</symbol>


<symbol id="icon-check-circle" viewBox="0 0 50 50">
  <path d="M25 4.5C13.7 4.5 4.5 13.7 4.5 25S13.7 45.5 25 45.5 45.5 36.3 45.5 25 36.3 4.5 25 4.5zm0 2.66c9.87 0 17.84 7.97 17.84 17.84 0 9.87-7.97 17.85-17.84 17.85-9.87 0-17.84-7.98-17.84-17.85 0-9.87 7.97-17.84 17.84-17.84zm9.6 9.3L20.9 29.74l-5.5-5.32-1.97 2.04 7.48 7.24 15.67-15.2-1.98-2.04z"/>
</symbol>



<symbol id="icon-compass" viewBox="0 0 50 50">
  <path d="M25 2C12.32 2 2 12.32 2 25s10.32 23 23 23 23-10.32 23-23S37.68 2 25 2zm0 2.88c11.1 0 20.13 9.02 20.13 20.12 0 11.1-9.03 20.13-20.13 20.13S4.87 36.1 4.87 25 13.9 4.87 25 4.87zm9.86 8.64c-.15.02-.3.06-.43.13l-13.52 6.6c-.28.14-.5.38-.65.66l-6.6 13.53c-.28.55-.16 1.2.27 1.65.28.27.64.42 1.02.42.2 0 .43-.05.63-.15l13.5-6.6c.3-.14.53-.37.67-.66l6.6-13.53c.28-.55.17-1.2-.26-1.65-.33-.32-.78-.47-1.22-.4zm-2.93 4.55l-4.55 9.3-9.3 4.56 4.54-9.3 9.3-4.56z"/>
</symbol>


<symbol id="icon-heart" viewBox="0 0 50 50">
  <path d="M24.08 43.33c.24.27.58.42.94.42.35 0 .7-.15.93-.42l16.48-18.46C44.1 22.84 45 20.3 45 17.7c0-6.3-5.24-11.45-11.7-11.45-3.16 0-6.1 1.22-8.3 3.4-2.18-2.17-5.14-3.4-8.32-3.4C10.24 6.25 5 11.4 5 17.7c0 2.6.9 5.15 2.62 7.23.16.2 12.64 14.14 16.46 18.4zm-7.4-34.58c2.9 0 5.58 1.3 7.33 3.56.5.62 1.5.62 2 0 1.74-2.25 4.4-3.55 7.3-3.55 5.08 0 9.2 4.02 9.2 8.95 0 2.05-.7 3.98-1.97 5.54L25 40.64c-5.7-6.4-15.2-17-15.5-17.35-1.3-1.62-2-3.55-2-5.6 0-4.93 4.12-8.95 9.18-8.95z"/>
</symbol>


<symbol id="icon-bookmark" viewBox="0 0 50 50">
  <path d="M39.38 48c.13 0 .27-.02.4-.06.62-.2 1.03-.75 1.03-1.38V3.44c0-.8-.63-1.44-1.42-1.44H10.63c-.8 0-1.44.64-1.44 1.44v43.12c0 .63.4 1.2 1 1.38.6.18 1.27-.05 1.62-.58L25 27.6l13.18 19.76c.27.4.72.64 1.2.64zm-1.44-6.2L26.2 24.2c-.27-.4-.72-.64-1.2-.64s-.93.24-1.2.64L12.06 41.8V4.88h25.88z"/>
</symbol>


<symbol id="icon-flag" viewBox="0 0 50 50">
  <path d="M32.05 5c-2.47 0-4.92.5-7.3.98-2.35.48-4.57.93-6.8.93-1.72 0-3.26-.27-4.7-.85-.12-.06-.26-.08-.4-.08h-.05-.04c-.14 0-.28.02-.4.08-.03 0-.06.02-.08.03l-.16.08-.14.12-.06.05c-.1.1-.17.2-.22.34-.02.02-.02.05-.03.08-.05.14-.1.28-.1.42v36.61c0 .67.56 1.22 1.23 1.22.67 0 1.22-.55 1.22-1.22v-18.4c1.24.34 2.53.5 3.94.5 2.47 0 4.92-.48 7.3-.97 2.34-.46 4.56-.92 6.8-.92 1.72 0 3.25.3 4.68.87.38.15.8.1 1.14-.12.34-.23.54-.6.54-1V7.16c0-.5-.3-.94-.76-1.13C35.93 5.34 34.1 5 32.06 5zm3.93 17.03c-1.23-.33-2.53-.5-3.93-.5-2.47 0-4.92.5-7.3 1-2.34.47-4.57.92-6.8.92-1.42 0-2.72-.2-3.93-.58v-14c1.24.32 2.54.48 3.94.48 2.47 0 4.92-.5 7.3-.98 2.34-.48 4.56-.93 6.8-.93 1.4 0 2.7.2 3.92.6v14z"/>
</symbol>


<symbol id="icon-alarm" viewBox="0 0 50 50">
  <path d="M11.54 2.13C7.84 2.13 2 6.57 2 11.67v5.43h3.08L16.9 5.2V2.14zm21.5.07v3.08L44.9 17.1H48v-5.36c0-3.7-4.44-9.54-9.53-9.54zM13.8 4.45v.02l-9.5 9.55c.22-6.78 4.83-9.47 9.5-9.57zm22.3.07c6.77.22 9.47 4.83 9.57 9.5h-.03zM25.05 8.06c-10.85 0-19.7 8.83-19.7 19.7 0 4.43 1.5 8.53 4 11.83l-5.34 5.74 2.7 2.53 5.15-5.55c3.5 3.17 8.1 5.12 13.2 5.12 5.17 0 9.87-2.03 13.4-5.3l5.02 5.73 2.86-2.4-5.4-6.15c2.37-3.25 3.8-7.24 3.8-11.57 0-10.86-8.84-19.7-19.7-19.7zm0 3.08c9.2 0 16.6 7.42 16.6 16.6 0 9.2-7.4 16.62-16.6 16.62-9.2 0-16.6-7.42-16.6-16.6 0-9.2 7.4-16.62 16.6-16.62zm-2.1 1.36v14.7H12.74v3.1h13.3V12.5z"/>
</symbol>


<symbol id="icon-chat" viewBox="0 0 50 50">
  <path d="M2 37.72h27.23l10.4 10.16h1.87V37.72H48V2.12H2zm43.16-2.84h-6.5v8.35l-8.35-8.35H4.85V4.96h40.32v29.92z"/>
</symbol>



<symbol id="icon-clock" viewBox="0 0 50 50">
  <path d="M25 4.3C13.47 4.3 4.07 13.58 4.07 25S13.47 45.7 25 45.7 45.93 36.42 45.93 25 36.53 4.3 25 4.3zm0 2.84c10 0 18.1 8 18.1 17.86 0 9.87-8.1 17.86-18.1 17.86-10 0-18.1-8-18.1-17.86C6.9 15.13 15 7.14 25 7.14zm-1.42 4.7v13.5H15v2.85h11.42V11.83z"/>
</symbol>



<symbol id="icon-download" viewBox="0 0 50 50">
  <path d="M23.58 2v29.34l-6.96-7.07-1.56 1.82L25 36.02l9.94-9.96-1.56-1.8-6.96 7.1V2zM5.84 11.58V48h38.32V11.58H29.78v2.84h11.54v30.74H8.68V14.42h11.54v-2.84z"/>
</symbol>


<symbol id="icon-upload" viewBox="0 0 50 50">
  <path d="M26.42 48V18.66l6.96 7.07 1.56-1.82L25 13.98l-9.94 9.96 1.56 1.8 6.96-7.1V48zm17.74-9.58V2H5.84v36.42h14.38v-2.84H8.68V4.84h32.64v30.74H29.78v2.84z"/>
</symbol>


<symbol id="icon-expand" viewBox="0 0 50 50">
  <path d="M33.7 1.8v2.86h9.58L31.7 16.4l1.93 1.9L45.16 6.6v9.7H48V1.8H33.7zM2 2v14.3h2.84V6.7L16.58 18.3l1.9-1.93L6.78 4.84h9.7V2H2zm14.37 29.52L4.84 43.22v-9.7H2V48h14.3v-2.84H6.7L18.3 33.42l-1.93-1.9zm17.24.18l-1.9 1.93 11.7 11.53h-9.7V48h14.5V33.7h-2.86v9.58L33.6 31.7z"/>
</symbol>


<symbol id="icon-filter" viewBox="0 0 50 50">
  <path d="M30.3 45.34H19.7V28.1L2 4.65h46L30.3 28.1zm-7.78-3.1h4.95V27.5l14.7-20H7.74l14.77 20z"/>
</symbol>


<symbol id="icon-folder" viewBox="0 0 50 50">
  <path d="M44.27 10.15h-24.9V9.2c0-2.13-1.73-3.85-3.85-3.85H5.94C3.82 5.35 2.1 7.07 2.1 9.2v31.6c0 2.13 1.72 3.85 3.84 3.85h38.33c2.12 0 3.84-1.72 3.84-3.84V14c0-2.12-1.7-3.84-3.83-3.84zM4.42 9.2c0-1.07.46-1.33 1.52-1.33h9.58c1.06 0 1.44.46 1.52 1.52v3.06h27.23c1.06 0 .85.47 1.02 1.52v1.9H4.4c-.13-2.06.04-4.83 0-6.7zm39.85 32.6H5.94c-1.06 0-.95.07-1-1V18.74h40.33V40.8c0 1.07.06 1-1 1z"/>
</symbol>


<symbol id="icon-help" viewBox="0 0 50 50">
  <path d="M25 2C12.32 2 2 12.32 2 25s10.32 23 23 23 23-10.32 23-23S37.68 2 25 2zm0 2.98c11.08 0 20.02 8.94 20.02 20.02S36.08 45.02 25 45.02 4.98 36.08 4.98 25 13.92 4.98 25 4.98zm-.08 7.96c-4.67 0-7.57 2.9-7.6 7.46h2.32c-.06-3.32 1.68-5.35 5.2-5.35 2.5 0 4.6 1.37 4.6 3.95 0 1.67-.9 3.03-2.1 4.15-2.45 2.27-3.13 4.14-3.26 7.25h2.46c.12-2.82.06-3.56 2.52-6.02 1.64-1.55 2.8-3.1 2.8-5.48 0-3.73-3.36-5.96-6.94-5.96zm.3 20.22c-1.08 0-1.96.87-1.96 1.95 0 1.1.88 1.96 1.95 1.96 1.1 0 1.96-.87 1.96-1.95 0-1.06-.87-1.94-1.95-1.94z"/>
</symbol>


<symbol id="icon-like" viewBox="0 0 50 50">
  <path d="M48.97 24.36c0-2.26-1.8-4-4.17-4h-15c.95-2.23 2.67-6.9 2.67-11.7 0-5.5-2.75-6.66-5.07-6.66-1.43 0-3.5 1.1-3.5 3.05 0 .83-.14 8.2-4.65 12-4.8 4.02-6.16 5.07-8.8 5.07-3.06 0-8.5.07-8.5.07h-.92v21.45h10.04c.65 0 2.6.88 4.33 1.64 2.85 1.26 6.08 2.7 8.26 2.7h14.5c2.36 0 4.28-1.86 4.28-4.14 0-.93-.33-1.78-.87-2.47 1.73-.5 3-2.1 3-3.97 0-.95-.33-1.8-.87-2.5 1.7-.56 2.95-2.14 2.95-4.02 0-.93-.32-1.8-.85-2.5 1.8-.45 3.16-2.08 3.16-4.03zM44.8 26.2h-4.2v2.83h1.83c1.3 0 1.38.57 1.38 1.88 0 1.32-.06 1.9-1.37 1.9h-3.68v2.83h1.7c1.26 0 1.28.53 1.28 1.8 0 1.26-.02 1.8-1.3 1.8h-3.52v2.33l1.26.5c1.24.5 1.44.53 1.44 1.8 0 1.26-.1 1.3-1.44 1.3h-14.5c-1.78 0-4.96-1.42-7.5-2.55-2.5-1.1-4.1-1.8-5.1-1.8h-7.2V24.97c1.7-.02 4.3 0 6.6 0 3.4 0 6.2-2.5 10.98-6.5 5.04-4.23 5.3-10.7 5.3-12.2 0-.76.15-1.44.66-1.42.55.02 2.23-.6 2.23 4.2 0 6.08-3.07 11.75-3.1 11.82l.32 2.33h11.3c.02.02.04 0 .04 0h6.6c1.35 0 1.33-.07 1.33 1.16 0 1.3-.05 1.83-1.33 1.83z"/>
</symbol>


<symbol id="icon-medal" viewBox="0 0 50 50">
  <path d="M14.3 2v6.45c0 1.57 3.74 10.73 4.07 11.54-4.84 2.43-8.17 7.43-8.17 13.2C10.2 41.36 16.84 48 25 48s14.8-6.64 14.8-14.8c0-5.7-3.23-10.63-7.96-13.1C32.9 17.55 36 10.06 36 8.44V2zm2.9 2.88h6.48v10.2h2.9V4.88h6.53v3.57c0 .9-1.7 5.8-3.7 10.6-1.4-.42-2.87-.65-4.4-.65-1.5 0-2.97.23-4.35.66-1.7-4.16-3.46-9.62-3.46-10.6zm7.8 16.4c6.6 0 11.92 5.32 11.92 11.92S31.6 45.12 25 45.12 13.08 39.8 13.08 33.2 18.4 21.28 25 21.28zm-.2 2.17c-5.35 0-9.72 4.36-9.72 9.7 0 5.35 4.37 9.7 9.7 9.7 5.35 0 9.7-4.35 9.7-9.7 0-5.34-4.35-9.7-9.7-9.7zm0 2.88c3.77 0 6.8 3.04 6.8 6.83 0 3.78-3.03 6.82-6.8 6.82-3.8 0-6.83-3.04-6.83-6.82 0-3.8 3.03-6.83 6.82-6.83z"/>
</symbol>


<symbol id="icon-refresh" viewBox="0 0 50 50">
  <path d="M41.2 28.96c0 9.63-6.58 16.2-16.2 16.2S8.8 38.6 8.8 28.96c0-9.6 6.54-16.15 16.13-16.2v6.7L40 11.35 24.93 2v7.93c-10.48.04-18.97 8.54-18.97 19.03C5.96 39.48 14.48 48 25 48c10.5 0 19.04-8.52 19.04-19.04H41.2zm-5.46-17.6l-8.37 3.84V6.35z"/>
</symbol>


<symbol id="icon-share" viewBox="0 0 50 50">
   <path d="M41.36 2.5a6.64 6.64 0 0 0-6.65 6.66 6.64 6.64 0 0 0 .1 1.06L14 19.15a6.64 6.64 0 0 0-5.36-2.7A6.64 6.64 0 0 0 2 23.07a6.64 6.64 0 0 0 6.64 6.65 6.64 6.64 0 0 0 4.05-1.38l13.64 10.13a6.64 6.64 0 0 0-.45 2.36 6.64 6.64 0 0 0 6.64 6.65 6.64 6.64 0 0 0 6.64-6.66 6.64 6.64 0 0 0-6.64-6.64 6.64 6.64 0 0 0-4.7 1.95l-13.35-9.9a6.64 6.64 0 0 0 .8-3.17 6.64 6.64 0 0 0-.17-1.4L35.8 12.8a6.64 6.64 0 0 0 5.56 3A6.64 6.64 0 0 0 48 9.16a6.64 6.64 0 0 0-6.64-6.65z"/>
</symbol>


<symbol id="icon-target" viewBox="0 0 50 50">
  <path d="M23.58 2v3.14c-9.85.7-17.75 8.6-18.44 18.44H2v2.84h3.14c.7 9.85 8.6 17.75 18.44 18.44V48h2.84v-3.14c9.85-.7 17.75-8.6 18.44-18.44H48v-2.84h-3.14c-.7-9.85-8.6-17.75-18.44-18.44V2h-2.84zm0 6v4h2.84V8c8.3.67 14.9 7.27 15.6 15.58H38v2.84h4c-.67 8.3-7.27 14.9-15.58 15.6V38h-2.84v4c-8.3-.67-14.9-7.27-15.6-15.58H12v-2.84H8c.67-8.3 7.27-14.9 15.58-15.6zM25 17.24c-4.26 0-7.75 3.5-7.75 7.75 0 4.26 3.5 7.75 7.75 7.75 4.26 0 7.75-3.5 7.75-7.75 0-4.26-3.5-7.75-7.75-7.75zm0 2.84c2.73 0 4.9 2.17 4.9 4.9 0 2.73-2.17 4.9-4.9 4.9-2.73 0-4.9-2.17-4.9-4.9 0-2.73 2.17-4.9 4.9-4.9z"/>
</symbol>


<symbol id="icon-tag" viewBox="0 0 50 50">
  <path d="M27.8 2L2 27.74 22.22 48 48 22.3V10.94L39.03 2zm10.17 3.03l6.92 6.9.26 9.65-22.94 22.4-16.2-16.24L29.12 4.9zM36.44 9.2c-2.15 0-3.92 1.77-3.92 3.92s1.77 3.92 3.92 3.92 3.92-1.77 3.92-3.92S38.6 9.2 36.44 9.2zm0 2.84c.6 0 1.08.46 1.08 1.08 0 .6-.47 1.08-1.08 1.08-.6 0-1.08-.47-1.08-1.08 0-.62.47-1.08 1.08-1.08z"/>
</symbol>


<!-- ===========================
               News Ones
=================================-->

<symbol  id="icon-angle-down2" viewBox="0 0 24 24">
  <path d="M0 7.33l2.829-2.83 9.175 9.339 9.167-9.339 2.829 2.83-11.996 12.17z"/>
</symbol>


<symbol  id="icon-bell2" viewBox="0 0 24 24">
  <path d="M15.137 3.945c-.644-.374-1.042-1.07-1.041-1.82v-.003c.001-1.172-.938-2.122-2.096-2.122s-2.097.95-2.097 2.122v.003c.001.751-.396 1.446-1.041 1.82-4.667 2.712-1.985 11.715-6.862 13.306v1.749h20v-1.749c-4.877-1.591-2.195-10.594-6.863-13.306zm-3.137-2.945c.552 0 1 .449 1 1 0 .552-.448 1-1 1s-1-.448-1-1c0-.551.448-1 1-1zm3 20c0 1.598-1.392 3-2.971 3s-3.029-1.402-3.029-3h6z"/>
</symbol>


<symbol  id="icon-dashboard" viewBox="0 0 24 24">
  <path d="M12 2c-6.627 0-12 5.373-12 12 0 2.583.575 5.344 2.599 8h18.753c2.023-2.656 2.648-5.417 2.648-8 0-6.627-5.373-12-12-12zm-.758 2.14c.256-.019.51-.029.758-.029s.502.01.758.029v3.115c-.252-.028-.506-.042-.758-.042s-.506.014-.758.042v-3.115zm-5.764 7.978l-2.88-1.193c.158-.479.352-.948.582-1.399l2.879 1.192c-.247.444-.441.913-.581 1.4zm1.217-2.351l-2.203-2.203c.329-.383.688-.743 1.071-1.071l2.203 2.203c-.395.316-.754.675-1.071 1.071zm.793-4.569c.449-.231.919-.428 1.397-.586l1.205 2.874c-.486.142-.954.339-1.397.586l-1.205-2.874zm1.407 13.802c.019-1.151.658-2.15 1.603-2.672l1.502-7.041 1.502 7.041c.943.522 1.584 1.521 1.602 2.672h-6.209zm4.989-11.522l1.193-2.878c.479.156.948.352 1.4.581l-1.193 2.878c-.444-.246-.914-.44-1.4-.581zm2.349 1.218l2.203-2.203c.383.329.742.688 1.071 1.071l-2.203 2.203c-.316-.396-.675-.755-1.071-1.071zm2.259 3.32c-.147-.483-.35-.95-.603-1.39l2.86-1.238c.235.445.437.912.602 1.39l-2.859 1.238z"/>
</symbol>


<symbol  id="icon-download2" viewBox="0 0 24 24">
  <path d="M12 21l-8-9h6v-12h4v12h6l-8 9zm9-1v2h-18v-2h-2v4h22v-4h-2z"/>
</symbol>


<symbol  id="icon-edit2" viewBox="0 0 24 24">
  <path d="M24.001 8.534l-11.103 11.218-5.898 1.248 1.361-5.784 11.104-11.216 4.536 4.534zm-24 10.466l-.001 2h5v-2h-4.999z"/>
</symbol>


<symbol  id="icon-error2" viewBox="0 0 24 24">
  <path d="M16.971 0h-9.942l-7.029 7.029v9.941l7.029 7.03h9.941l7.03-7.029v-9.942l-7.029-7.029zm-4.971 19.25c-.69 0-1.25-.56-1.25-1.25s.56-1.25 1.25-1.25 1.25.56 1.25 1.25-.56 1.25-1.25 1.25zm.55-4.748c-.029.283-.266.498-.55.498s-.521-.215-.55-.498l-.801-8.01c-.08-.8.55-1.492 1.351-1.492s1.431.692 1.351 1.493l-.801 8.009z"/>
</symbol>


<symbol  id="icon-folder2" viewBox="0 0 24 24">
  <path d="M1 9v-7h6c1.695 1.942 2.371 3 4 3h12v4h-22zm-1 2l2 11h20l2-11h-24z"/>
</symbol>


<symbol  id="icon-folder3" viewBox="0 0 24 24">
  <path d="M6.083 4c1.38 1.612 2.578 3 4.917 3h11v13h-20v-16h4.083zm.917-2h-7v20h24v-17h-13c-1.629 0-2.305-1.058-4-3z"/>
</symbol>


<symbol  id="icon-folder4" viewBox="0 0 24 24">
  <path d="M1.979 8l-.979-6h6.972c1.265 1.583 1.327 2 3.306 2h11.722l-.96 4h-2.04l.469-2h-9.191c-2.326 0-3.166-.612-4.278-2h-3.694l.694 4h-2.021zm22.021 2l-2 12h-20l-2-12h6.278l2.308-3 3.9 3h1.97l-1.429-1.097 1.465-1.903 3.9 3h5.608zm-2.331 2h-19.338l1.385 8h16.568l1.385-8z"/>
</symbol>


<symbol  id="icon-home2" viewBox="0 0 24 24">
  <path d="M12 6.453l9 8.375v9.172h-6v-6h-6v6h-6v-9.172l9-8.375zm12 5.695l-12-11.148-12 11.133 1.361 1.465 10.639-9.868 10.639 9.883 1.361-1.465z"/>
</symbol>


<symbol  id="icon-inbox" viewBox="0 0 24 24">
  <path d="M18.546 3h-13.069l-5.477 8.986v9.014h24v-9.014l-5.454-8.986zm-3.796 12h-5.5l-2.25-3h-4.666l4.266-7h10.82l4.249 7h-4.669l-2.25 3zm-9.75-4l.607-1h12.787l.606 1h-14zm12.18-3l.607 1h-11.573l.607-1h10.359zm-1.214-2l.606 1h-9.144l.607-1h7.931z"/>
</symbol>


<symbol  id="icon-info2" viewBox="0 0 24 24">
  <path d="M12 0c-6.627 0-12 5.373-12 12s5.373 12 12 12 12-5.373 12-12-5.373-12-12-12zm-.001 5.75c.69 0 1.251.56 1.251 1.25s-.561 1.25-1.251 1.25-1.249-.56-1.249-1.25.559-1.25 1.249-1.25zm2.001 12.25h-4v-1c.484-.179 1-.201 1-.735v-4.467c0-.534-.516-.618-1-.797v-1h3v6.265c0 .535.517.558 1 .735v.999z"/>
</symbol>


<symbol  id="icon-lang2" viewBox="0 0 24 24">
  <path d="M21 10h-8c-1.657 0-3 1.343-3 3v8c0 1.657 1.343 3 3 3h8c1.657 0 3-1.343 3-3v-8c0-1.657-1.343-3-3-3zm-1.865 11l-.66-1.846h-3l-.663 1.846h-1.66l3.041-8h1.602l3.053 8h-1.713zm-2.153-6.137l1.051 3.018h-2.103l1.052-3.018zm-11.837-6.977c.038.581.104 1.116.194 1.593-1.224.224-1.274-.984-.194-1.593zm8.855-4.886v5h-1c-.743 0-1.442.173-2.076.465-.196-.806-.783-1.53-1.679-1.964.077-.298.123-.522.167-.744l-1.35-.262c-.023.113-.063.328-.136.614-.456-.066-.94-.075-1.431-.025.011-.329.032-.653.06-.963h1.507v-1.279h-1.326c.065-.326.121-.521.176-.705l-1.317-.396c-.097.323-.178.64-.259 1.101h-1.504v1.278h1.341c-.036.414-.057.842-.064 1.275-1.48.544-2.109 1.581-2.109 2.521 0 1.11.876 2.086 2.261 1.96 1.72-.156 2.869-1.456 3.542-3.053.885.536.838 1.161.773 1.552-.966.913-1.576 2.196-1.576 3.625v1h-5c-1.657 0-3-1.343-3-3v-8c0-1.657 1.343-3 3-3h8c1.657 0 3 1.343 3 3zm-7.5 4.467c.327-.042.658-.05.969-.026-.214.476-.496.948-.855 1.319-.055-.396-.093-.83-.114-1.293z"/>
</symbol>


<symbol  id="icon-lang3" viewBox="0 0 24 24">
  <path d="M21 21h-1.713l-.658-1.846h-3l-.663 1.846h-1.659l3.04-8h1.603l3.05 8zm-2.814-3.12l-1.049-3.018-1.054 3.018h2.103zm-9.464-12.037l.125-.562-1.02-.199-.101.464c-.345-.05-.712-.057-1.083-.019.009-.249.023-.494.045-.728h1.141v-.966h-1.004c.049-.246.092-.394.134-.533l-.997-.3c-.072.245-.134.484-.195.833h-1.138v.966h1.014c-.027.312-.043.637-.048.964-1.119.411-1.595 1.195-1.595 1.905 0 .84.663 1.578 1.709 1.482 1.301-.118 2.169-1.1 2.679-2.308.525.303.746.814.548 1.286-.185.436-.725.852-1.757.831v1.041c1.146.018 2.272-.417 2.715-1.469.431-1.028-.062-2.151-1.172-2.688zm-1.342.71c-.162.36-.375.717-.648.998-.041-.3-.07-.628-.086-.978.249-.032.499-.038.734-.02zm-1.758.336c.028.44.078.844.148 1.205-.927.169-.963-.744-.148-1.205zm15.378 5.111c.552 0 1 .449 1 1v8c0 .551-.448 1-1 1h-8c-.552 0-1-.449-1-1v-8c0-.551.448-1 1-1h8zm0-2h-8c-1.656 0-3 1.343-3 3v8c0 1.657 1.344 3 3 3h8c1.657 0 3-1.343 3-3v-8c0-1.657-1.343-3-3-3zm-13 3c0-.342.035-.677.102-1h-5.102c-.552 0-1-.449-1-1v-8c0-.551.448-1 1-1h8c.552 0 1 .449 1 1v5.101c.323-.066.657-.101 1-.101h1v-5c0-1.657-1.343-3-3-3h-8c-1.656 0-3 1.343-3 3v8c0 1.657 1.344 3 3 3h5v-1z"/>
</symbol>


<symbol  id="icon-layers" viewBox="0 0 24 24">
  <path d="M21.698 10.658l2.302 1.342-12.002 7-11.998-7 2.301-1.342 9.697 5.658 9.7-5.658zm-9.7 10.657l-9.697-5.658-2.301 1.343 11.998 7 12.002-7-2.302-1.342-9.7 5.657zm12.002-14.315l-12.002-7-11.998 7 11.998 7 12.002-7z"/>
</symbol>


<symbol  id="icon-light-bulb" viewBox="0 0 24 24">
  <path d="M19 6.734c0 4.672-4.25 7.079-4.25 12.266h-5.5c0-5.187-4.25-7.594-4.25-12.266 0-4.343 3.498-6.734 6.996-6.734 3.502 0 7.004 2.394 7.004 6.734zm-4.75 13.266h-4.5c-.276 0-.5.224-.5.5s.224.5.5.5h4.5c.276 0 .5-.224.5-.5s-.224-.5-.5-.5zm.25 2h-5l1.451 1.659c.19.216.464.341.753.341h.593c.288 0 .563-.125.752-.341l1.451-1.659z"/>
</symbol>


<symbol  id="icon-location" viewBox="0 0 24 24">
  <path d="M12 0c-4.198 0-8 3.403-8 7.602 0 4.198 3.469 9.21 8 16.398 4.531-7.188 8-12.2 8-16.398 0-4.199-3.801-7.602-8-7.602zm0 11c-1.657 0-3-1.343-3-3s1.343-3 3-3 3 1.343 3 3-1.343 3-3 3z"/>
</symbol>


<symbol  id="icon-lock" viewBox="0 0 24 24">
  <path d="M18 10v-4c0-3.313-2.687-6-6-6s-6 2.687-6 6v4h-3v14h18v-14h-3zm-10 0v-4c0-2.206 1.794-4 4-4s4 1.794 4 4v4h-8z"/>
</symbol>


<symbol  id="icon-magnifier" viewBox="0 0 24 24">
  <path d="M23.822 20.88l-6.353-6.354c.93-1.465 1.467-3.2 1.467-5.059.001-5.219-4.247-9.467-9.468-9.467s-9.468 4.248-9.468 9.468c0 5.221 4.247 9.469 9.468 9.469 1.768 0 3.421-.487 4.839-1.333l6.396 6.396 3.119-3.12zm-20.294-11.412c0-3.273 2.665-5.938 5.939-5.938 3.275 0 5.94 2.664 5.94 5.938 0 3.275-2.665 5.939-5.94 5.939-3.274 0-5.939-2.664-5.939-5.939z"/>
</symbol>


<symbol  id="icon-medal2" viewBox="0 0 24 24">
  <path d="M8 0l5.958 8h-3.958l-6-8h4zm6.604 7.194l5.396-7.194h-4l-3.376 4.534 1.98 2.66zm-2.604 4.806c-2.762 0-5 2.239-5 5s2.238 5 5 5 5-2.239 5-5-2.238-5-5-5zm1.854 7.755l-1.854-.992-1.854.992.369-2.07-1.515-1.457 2.083-.287.917-1.892.917 1.892 2.083.287-1.516 1.457.37 2.07zm-1.854-9.755c-3.865 0-7 3.134-7 7s3.135 7 7 7 7-3.134 7-7-3.135-7-7-7zm0 13c-3.314 0-6-2.687-6-6s2.686-6 6-6 6 2.687 6 6-2.686 6-6 6z"/>
</symbol>


<symbol  id="icon-medal3" viewBox="0 0 24 24">
  <path d="M12 14c2.206 0 4 1.794 4 4s-1.794 4-4 4-4-1.794-4-4 1.794-4 4-4zm0-2c-3.314 0-6 2.687-6 6s2.686 6 6 6 6-2.687 6-6-2.686-6-6-6zm1.236 6.452l1.264-1.214-1.736-.239-.764-1.577-.764 1.577-1.736.239 1.264 1.214-.308 1.725 1.544-.826 1.544.827-.308-1.726zm1.368-9.258l5.396-6.194-2-3h-12l-2 3 6 7h3.958l-5.958-7h8l-3.377 3.869 1.981 2.325z"/>
</symbol>


<symbol  id="icon-tag2" viewBox="0 0 24 24">
  <path d="M15.354 6h-3.554c-2.721-4.496-9.566-4.523-11.293-1.706-1.341 2.186.061 5.062 3.24 5.062 1.307 0 2.52-.593 4.253-.329v3.567l9.033 9.042 6.967-6.966-8.646-8.67zm-11.606 1.871c-1.996 0-2.738-1.6-1.956-2.835 1.076-1.701 5.756-1.94 8.19.964h-1.982v1.529c-1.922-.233-3.2.342-4.252.342zm9.207 2.645c-.817.817-2.206.394-2.446-.72 1.188.093 1.902-.723 1.795-1.708 1.071.285 1.445 1.634.651 2.428z"/>
</symbol>


<symbol  id="icon-target2" viewBox="0 0 24 24">
  <path d="M6 12c0 2.206 1.794 4 4 4 1.761 0 3.242-1.151 3.775-2.734l2.224-1.291.001.025c0 3.314-2.686 6-6 6s-6-2.686-6-6 2.686-6 6-6c1.084 0 2.098.292 2.975.794l-2.21 1.283c-.248-.048-.503-.077-.765-.077-2.206 0-4 1.794-4 4zm4-2c-1.105 0-2 .896-2 2s.895 2 2 2 2-.896 2-2l-.002-.015 3.36-1.95c.976-.565 2.704-.336 3.711.159l4.931-2.863-3.158-1.569.169-3.632-4.945 2.87c-.07 1.121-.734 2.736-1.705 3.301l-3.383 1.964c-.29-.163-.621-.265-.978-.265zm7.995 1.911l.005.089c0 4.411-3.589 8-8 8s-8-3.589-8-8 3.589-8 8-8c1.475 0 2.853.408 4.041 1.107.334-.586.428-1.544.146-2.18-1.275-.589-2.69-.927-4.187-.927-5.523 0-10 4.477-10 10s4.477 10 10 10c5.233 0 9.521-4.021 9.957-9.142-.301-.483-1.066-1.061-1.962-.947z"/>
</symbol>


<symbol  id="icon-time2" viewBox="0 0 24 24">
  <path d="M24 12c0 6.627-5.373 12-12 12s-12-5.373-12-12h2c0 5.514 4.486 10 10 10s10-4.486 10-10-4.486-10-10-10c-2.777 0-5.287 1.141-7.099 2.977l2.061 2.061-6.962 1.354 1.305-7.013 2.179 2.18c2.172-2.196 5.182-3.559 8.516-3.559 6.627 0 12 5.373 12 12zm-13-6v8h7v-2h-5v-6h-2z"/>
</symbol>


<symbol  id="icon-trash" viewBox="0 0 24 24">
  <path d="M3 6l3 18h12l3-18h-18zm19-4v2h-20v-2h5.711c.9 0 1.631-1.099 1.631-2h5.316c0 .901.73 2 1.631 2h5.711z"/>
</symbol>


<symbol  id="icon-upload2" viewBox="0 0 24 24">
  <path d="M10 9h-6l8-9 8 9h-6v11h-4v-11zm11 11v2h-18v-2h-2v4h22v-4h-2z"/>
</symbol>


<symbol  id="icon-wifi" viewBox="0 0 24 24">
  <path d="M4.504 13.572l-1.505-1.489c2.201-2.805 5.413-4.583 9.001-4.583s6.8 1.779 9 4.583l-1.504 1.489c-1.835-2.338-4.512-3.822-7.496-3.822s-5.661 1.484-7.496 3.822zm7.496.678c1.791 0 3.397.891 4.498 2.293l1.502-1.488c-1.467-1.869-3.608-3.055-6-3.055s-4.533 1.186-6 3.055l1.502 1.488c1.101-1.402 2.707-2.293 4.498-2.293zm0 2.25c-1.196 0-2.258.602-2.99 1.536l2.99 2.964 2.99-2.963c-.732-.935-1.794-1.537-2.99-1.537zm0-11.25c4.179 0 7.927 2.078 10.495 5.351l1.505-1.491c-2.935-3.739-7.217-6.11-12-6.11s-9.065 2.371-12 6.11l1.505 1.491c2.568-3.273 6.316-5.351 10.495-5.351z"/>
</symbol>


</defs>
</svg>
