<?xml version="1.0"?>
<svg width="32" height="32" xmlns="http://www.w3.org/2000/svg" xmlns:svg="http://www.w3.org/2000/svg">
 <g>
  <title>Layer 1</title>
  <path fill="black" id="svg_1" d="m6.758169,29.681691l18.512588,0c0.464498,0 0.841481,-0.375118 0.841481,-0.837317l0,-14.326486c0,-0.462199 -0.376984,-0.837317 -0.841481,-0.837317l-0.398862,0c0,-0.862436 0,-2.083244 0,-2.09999c-0.052172,-4.793637 -4.024805,-8.69302 -8.856591,-8.69302c-4.846091,0 -8.818724,3.911106 -8.857432,8.724838l0.084241,2.068172l-0.483103,0c-0.464498,0 -0.841481,0.375118 -0.841481,0.837317l0,14.326486c-0.000841,0.462199 0.375301,0.837317 0.84064,0.837317zm17.671107,-1.674633l-16.829626,0l0,-12.651853l16.829626,0l0,12.651853zm-15.589282,-16.387959c0.031135,-3.89101 3.248959,-7.056904 7.17447,-7.056904c3.913729,0 7.132395,3.156683 7.173628,7.032622c0,0.054426 0,1.240903 0,2.085755l-14.348939,0l0.000841,-2.061473z"/>
  <path fill="black" id="svg_2" d="m13.932499,26.32895c0,0.552 0.448,1 1,1l2.362,0c0.552,0 1,-0.448 1,-1l0,-3.231c0.815,-0.653 1.301,-1.639 1.301,-2.695c0,-1.916 -1.562,-3.475 -3.482,-3.475s-3.482,1.559 -3.482,3.475c0,1.056 0.486,2.042 1.301,2.695l0,3.231zm2.182,-7.4c0.817,0 1.482,0.662 1.482,1.475c0,0.531 -0.298,1.024 -0.779,1.285c-0.322,0.175 -0.522,0.512 -0.522,0.878l0,2.762l-0.362,0l0,-2.762c0,-0.366 -0.2,-0.704 -0.522,-0.878c-0.48,-0.261 -0.779,-0.754 -0.779,-1.285c-0.001,-0.814 0.664,-1.475 1.482,-1.475z"/>
 </g>
</svg>