<svg style="position: absolute; width: 0; height: 0; overflow: hidden;" version="1.1" xmlns="http://www.w3.org/2000/svg" xmlns:xlink="http://www.w3.org/1999/xlink">
<defs>

<symbol id="icon-home" viewBox="0 0 80 80">
    <title>home</title>
   <path d="m78.06415,39.63682l-36.45679,-37.15367c-0.7215,-0.74914 -1.99228,-0.73492 -2.71843,0l-36.60109,37.31013c-1.21957,1.24699 -0.3398,3.34269 1.35922,3.34269l9.63088,0l0,33.38899c0,1.0763 0.87046,1.96294 1.92711,1.96294l17.33932,0c1.0613,0 1.92711,-0.89138 1.92711,-1.96294l0,-15.70828l11.55799,0l0,15.70828c0,1.0763 0.87046,1.96294 1.92245,1.96294l17.34397,0c1.06596,0 1.92711,-0.89138 1.92711,-1.96294l0,-33.38899l9.62623,0l0.01862,0c2.17382,-0.00474 2.44379,-2.23795 1.1963,-3.49916m-14.70002,34.92046l-13.48045,0l0,-15.70828c0,-1.08578 -0.8658,-1.96769 -1.92711,-1.96769l-15.41221,0c-1.0613,0 -1.92711,0.88664 -1.92711,1.96769l0,15.70828l-13.48045,0l0,-31.42605l46.22732,0l0,31.42605zm-55.06688,-35.34719l31.95089,-32.56398l31.96485,32.56398l-63.91575,0l0,0z"/>
</symbol>

<symbol id="icon-menu" viewBox="0 0 20 20">
    <title>menu</title>
    <path d="M3.314,4.8h13.372c0.41,0,0.743-0.333,0.743-0.743c0-0.41-0.333-0.743-0.743-0.743H3.314
								c-0.41,0-0.743,0.333-0.743,0.743C2.571,4.467,2.904,4.8,3.314,4.8z M16.686,15.2H3.314c-0.41,0-0.743,0.333-0.743,0.743
								s0.333,0.743,0.743,0.743h13.372c0.41,0,0.743-0.333,0.743-0.743S17.096,15.2,16.686,15.2z M16.686,9.257H3.314
								c-0.41,0-0.743,0.333-0.743,0.743s0.333,0.743,0.743,0.743h13.372c0.41,0,0.743-0.333,0.743-0.743S17.096,9.257,16.686,9.257z"></path>
</symbol>

<symbol id="icon-week" viewBox="0 0 1024 1024">
    <title>week</title>
    <path d="m199.40967,49.52357c-15.15913,1.77131 -27.91271,17.64358 -27.83137,34.63712l0,80.82049l-93.20253,0c-16.2666,0.00171 -31.06599,16.50172 -31.06751,34.63712l0,738.9286c0.00154,18.13538 14.80092,34.6354 31.06751,34.63712l869.89106,0c16.2666,-0.00171 31.06599,-16.50172 31.06751,-34.63712l0,-738.9286c0.08173,-16.99353 -12.67187,-32.86581 -27.83137,-34.63712c-1.0777,-0.06217 -2.15844,-0.06217 -3.23614,0l-93.20253,0l0,-80.82049c0.08173,-16.99353 -12.67187,-32.86581 -27.83137,-34.63712c-1.0777,-0.06261 -2.15844,-0.06261 -3.23614,0l-144.98184,0c-16.2666,0.00171 -31.06599,16.50172 -31.06751,34.63712l0,80.82049l-269.25188,0l0,-80.82049c-0.00154,-18.13538 -14.80092,-34.6354 -31.06751,-34.63712l-144.98184,0c-1.0777,-0.06261 -2.15844,-0.06261 -3.23614,0l-0.00038,0l-0.00001,0zm34.30365,69.27465l82.84683,0l0,46.18295l-82.84683,0l0,-46.18295zm476.36874,46.18295l82.84683,0l0,46.18295l-82.84683,0l0,-46.18295zm-600.63918,115.45761l807.75604,0l0,46.18295l-807.75604,0l0,-46.18295zm0,115.45761l807.75604,0l0,554.19635l-807.75604,0l0,-554.19635zm567.62976,34.63712c-10.18157,-45.11314 -18.81418,-34.49303 -18.76989,-23.0917l0,92.36592c0.00115,12.0904 9.86727,23.0904 20.71181,23.0917l144.98184,0c10.84415,-0.00128 20.71065,-11.0013 20.71181,-23.0917l0,-92.36592c0.04468,-11.40178 -8.58833,-22.02188 -18.76989,-23.0917c-0.64654,-0.03345 -1.29499,-0.03345 -1.9419,0l-144.98184,0c-0.64654,-0.03345 -1.29499,-0.03345 -1.9419,0l0,46.18295l0,0.00042l-0.00002,0.00001l0,0.00001zm-476.36874,173.18641c-10.18157,-45.11314 -18.81418,-34.49303 -18.76989,-23.0917l0,92.36592c0.00115,12.0904 9.86727,23.0904 20.71181,23.0917l144.98184,0c10.84415,-0.00128 20.71065,-11.0013 20.71181,-23.0917l0,-92.36592c-0.00115,-12.0904 -9.86727,-23.0904 -20.71181,-23.0917l-144.98184,0c-0.64654,-0.03345 -1.29499,-0.03345 -1.9419,0l0,46.18295l0,0.00042l-0.00001,0.00001l0,0.00001zm238.18437,0c-10.18157,-45.11314 -18.81418,-34.49303 -18.76989,-23.0917l0,92.36592c0.00115,12.0904 9.86727,23.0904 20.71181,23.0917l144.98184,0c10.84415,-0.00128 20.71065,-11.0013 20.71181,-23.0917l0,-92.36592c-0.00115,-12.0904 -9.86727,-23.0904 -20.71181,-23.0917l-144.98184,0c-0.64654,-0.03345 -1.29499,-0.03345 -1.9419,0l0,46.18295l0,0.00042l-0.00001,0.00001l0,0.00001zm238.18437,0c-10.18157,-45.11314 -18.81418,-34.49303 -18.76989,-23.0917l0,92.36592c0.00115,12.0904 9.86727,23.0904 20.71181,23.0917l144.98184,0c10.84415,-0.00128 20.71065,-11.0013 20.71181,-23.0917l0,-92.36592c-0.00115,-12.0904 -9.86727,-23.0904 -20.71181,-23.0917l-144.98184,0c-0.64654,-0.03345 -1.29499,-0.03345 -1.9419,0l0,46.18295l0,0.00042l-0.00001,0.00001l0,0.00001zm-476.36874,173.18641c-10.18157,-45.11314 -18.81418,-34.49303 -18.76989,-23.0917l0,92.36592c0.00115,12.0904 9.86727,23.0904 20.71181,23.0917l144.98184,0c10.84415,-0.00128 20.71065,-11.0013 20.71181,-23.0917l0,-92.36592c-0.00115,-12.0904 -9.86727,-23.0904 -20.71181,-23.0917l-144.98184,0c-0.64654,-0.03345 -1.29499,-0.03345 -1.9419,0l0,46.18295l0,0.00042l-0.00001,0.00001l0,0.00001z" />
</symbol>

<symbol id="icon-project2" viewBox="0 0 800 800">
    <title>project2</title>
    <path id="svg_1" d="m387.72283,202.84535l-75.93603,0l0,-23.47232l75.93603,0l0,23.47232zm245.47393,21.48954l-321.40223,0l0,23.47232l321.40996,0l0,-23.47232l-0.00773,0zm0,44.92975l-321.40223,0l0,23.47232l321.40996,0l0,-23.47232l-0.00773,0zm0,44.96186l-321.40223,0l0,23.47232l321.40996,0l0,-23.47232l-0.00773,0zm147.26426,75.63482l-0.1237,1.75802l-46.22496,316.78803c-0.51026,16.63292 -13.68426,29.99865 -29.81931,29.99865l-617.82489,0c-16.15825,0 -29.36317,-13.40587 -29.83477,-30.06287l-37.09439,-273.56011c0,-17.08246 13.38274,-30.97801 29.8425,-30.97801l7.23642,0l0,-155.07466c0,-17.08246 13.39047,-30.97801 29.85024,-30.97801l164.23428,0l0,-156.15837l327.15426,0l118.18714,122.73198l0,33.42638l8.24148,0c16.4443,0 29.83477,13.89555 29.83477,30.97801l0,110.16097l16.51388,0c16.4443,0 29.82704,13.88752 29.82704,30.96998l0.00001,0.00001zm-84.41718,-148.63663l0,117.66665l15.47017,0l0,-110.16097c0,-4.13415 -3.24711,-7.50568 -7.22869,-7.50568l-8.24148,0zm-111.56149,-139.55756l0,75.77931l72.97497,0l-72.97497,-75.77931zm-311.17383,-16.60081l0,318.73871l131.02097,0l12.56323,-21.16041l-105.09819,0l0,-23.47232l119.04531,0l0.17009,-0.28096l242.43556,0l0,-157.96455l-100.26618,0l-11.30304,-11.73616l0,-104.11628l-288.56774,0l0,-0.00803l-0.00001,0zm-22.60608,209.03531l-124.86692,0l0,109.7034l124.86692,0l0,-109.7034zm-171.47843,109.7034l24.00543,0l0,-133.17572l147.473,0l0,-29.40462l-164.23428,0c-3.99704,0 -7.24415,3.36351 -7.24415,7.50568l0,155.07466zm678.6,-14.62605c-0.33244,-3.82108 -3.43266,-6.81532 -7.1823,-6.81532l-307.02216,0l-26.68044,44.91369l-367.5576,0c-3.78057,0 -6.89625,3.02636 -7.21323,6.87151l37.05573,273.27112c0,4.14217 3.24711,7.51371 7.24415,7.51371l617.82489,0c3.98158,0 7.22869,-3.37154 7.22869,-7.51371l0.1237,-1.75802l46.17857,-316.48299l0,0.00001z" />

</symbol>

<symbol id="icon-edit" viewBox="0 0 32 32">
    <title>edit</title>
    <path class="path1" d="M27 0c2.761 0 5 2.239 5 5 0 1.126-0.372 2.164-1 3l-2 2-7-7 2-2c0.836-0.628 1.874-1 3-1zM2 23l-2 9 9-2 18.5-18.5-7-7-18.5 18.5zM22.362 11.362l-14 14-1.724-1.724 14-14 1.724 1.724z"></path>
</symbol>

<symbol id="icon-compass" viewBox="0 0 32 32">
    <title>compass</title>
    <path class="path1" d="M17 32c-0.072 0-0.144-0.008-0.217-0.024-0.458-0.102-0.783-0.507-0.783-0.976v-15h-15c-0.469 0-0.875-0.326-0.976-0.783s0.129-0.925 0.553-1.123l30-14c0.381-0.178 0.833-0.098 1.13 0.199s0.377 0.749 0.199 1.13l-14 30c-0.167 0.358-0.524 0.577-0.906 0.577zM5.508 14h11.492c0.552 0 1 0.448 1 1v11.492l10.931-23.423-23.423 10.931z"></path>
</symbol>

<symbol id="icon-bell" viewBox="0 0 80 80">
    <title>bell</title>
    <path transform="rotate(-19.417022705078125 34.20482254028322,44.80388641357421) " d="m55.48497,13.2037l1.1271,-3.0622c0.4178,-1.0933 -0.1506,-2.30754 -1.28256,-2.70422c-1.11253,-0.39185 -2.33193,0.15964 -2.73031,1.26745l-1.13682,3.05253c-13.87986,-3.81203 -28.68278,3.49275 -33.69644,17.0332l-7.02981,19.01178l-12.94223,5.93574c-1.7198,0.80304 -1.63721,3.25087 0.17004,3.89427l23.37277,8.36421c-0.92306,5.41328 2.1619,10.8846 7.58364,12.81965c5.43632,1.94472 11.37303,-0.28542 14.2005,-5.02627l23.37277,8.36905c0,0.00968 0.00972,0.00968 0.00972,0.00968c1.11738,0.39668 2.35137,-0.15964 2.75945,-1.26745c0.23805,-0.62405 0.14089,-1.2868 -0.19919,-1.82378l-5.92214,-12.51004l7.02981,-19.02145c5.01366,-13.53561 -1.54491,-28.49348 -14.68632,-34.34214m-25.09257,61.6504c-3.19669,-1.132 -5.12054,-4.20388 -4.92621,-7.36767l13.52521,4.82793c-1.9287,2.55909 -5.41203,3.68142 -8.599,2.53974m35.74659,-28.74019l-7.33587,19.83417c-0.19919,0.51762 -0.17975,1.09814 0.0583,1.59641l4.23149,8.92054l-20.32669,-7.28543l-18.1405,-6.49206l-20.33154,-7.27575l9.05567,-4.14583c0.50525,-0.23704 0.91334,-0.67243 1.11253,-1.19973l7.33587,-19.82449c4.45011,-12.03112 18.01418,-18.25227 30.22769,-13.87424c12.23779,4.36835 18.56316,17.7153 14.11305,29.74642"/>
</symbol>

<symbol id="icon-delete" viewBox="0 0 80 80">
    <title>delete</title>
    <path id="svg_1" d="m64.0469,10.83125l-16.04628,0c0.15091,-0.50338 0.26588,-1.02412 0.26588,-1.58825c0,-2.62973 -1.76775,-4.76475 -3.94869,-4.76475l-7.8902,0c-2.18094,0 -3.9451,2.13503 -3.9451,4.76475c0,0.56413 0.11857,1.08487 0.26588,1.58825l-16.04988,0c-2.17735,0 -3.9451,2.13503 -3.9451,4.76475c0,2.63407 1.76775,4.76475 3.9451,4.76475l1.31503,0l0,47.66055c0,3.5063 2.35341,6.353 5.26013,6.353l34.19446,0c2.90673,0 5.26732,-2.8467 5.26732,-6.353l0,-47.66055l1.30785,0c2.18094,0 3.95229,-2.13069 3.95229,-4.76475c0.00359,-2.62973 -1.76775,-4.76475 -3.94869,-4.76475zm-27.6193,-3.1765l7.8902,0c0.72578,0 1.31503,0.71168 1.31503,1.58825s-0.58566,1.58825 -1.31144,1.58825l-7.89379,0c-0.72938,0 -1.31503,-0.71168 -1.31503,-1.58825s0.58925,-1.58825 1.31503,-1.58825zm23.67779,60.36656c0,1.75749 -1.18209,3.17216 -2.63366,3.17216l-34.19446,0c-1.45157,0 -2.63007,-1.41467 -2.63007,-3.17216l0,-47.66055l39.46178,0l0,47.66055l-0.00359,0zm3.94151,-50.83705l-47.34839,0c-0.72938,0 -1.31503,-0.71168 -1.31503,-1.58825s0.58925,-1.58825 1.31503,-1.58825l47.34839,0c0.72578,0 1.31863,0.71168 1.31863,1.58825s-0.59284,1.58825 -1.31863,1.58825zm-35.5095,39.71496l23.67419,0c0.72578,0 1.31503,-0.71168 1.31503,-1.58825s-0.58925,-1.59259 -1.31503,-1.59259l-23.67419,0c-0.72938,0 -1.31503,0.71601 -1.31503,1.59259s0.58566,1.58825 1.31503,1.58825zm0,-9.53385l23.67419,0c0.72578,0 1.31503,-0.71168 1.31503,-1.58391c0,-0.88092 -0.58925,-1.59259 -1.31503,-1.59259l-23.67419,0c-0.72938,0 -1.31503,0.71168 -1.31503,1.59259c0,0.87224 0.58566,1.58391 1.31503,1.58391zm0,-9.52951l23.67419,0c0.72578,0 1.31503,-0.71168 1.31503,-1.58825c0,-0.87658 -0.58925,-1.58825 -1.31503,-1.58825l-23.67419,0c-0.72938,0 -1.31503,0.71168 -1.31503,1.58825c0,0.87658 0.58566,1.58825 1.31503,1.58825z" />
</symbol>

<symbol id="icon-horizontal-dots" viewBox="0 0 20 20">
    <title>horizontal-dots </title>
    <path id="svg_1" d="m3.936,7.979c-1.116,0 -2.021,0.905 -2.021,2.021s0.905,2.021 2.021,2.021s2.021,-0.905 2.021,-2.021s-0.905,-2.021 -2.021,-2.021zm0,3.032c-0.558,0 -1.011,-0.452 -1.011,-1.011s0.453,-1.011 1.011,-1.011s1.01,0.452 1.01,1.011s-0.452,1.011 -1.01,1.011zm12.128,-3.032c-1.116,0 -2.021,0.905 -2.021,2.021s0.905,2.021 2.021,2.021s2.021,-0.905 2.021,-2.021s-0.904,-2.021 -2.021,-2.021zm0,3.032c-0.559,0 -1.011,-0.452 -1.011,-1.011s0.452,-1.011 1.011,-1.011s1.011,0.452 1.011,1.011s-0.452,1.011 -1.011,1.011zm-6.064,-3.032c-1.116,0 -2.021,0.905 -2.021,2.021s0.905,2.021 2.021,2.021s2.021,-0.905 2.021,-2.021s-0.905,-2.021 -2.021,-2.021zm0,3.032c-0.558,0 -1.011,-0.452 -1.011,-1.011s0.453,-1.011 1.011,-1.011s1.011,0.452 1.011,1.011s-0.453,1.011 -1.011,1.011z" />
</symbol>

<symbol id="icon-user" viewBox="0 0 32 32">
    <title>user</title>
    <path class="path1" d="M18 22.082v-1.649c2.203-1.241 4-4.337 4-7.432 0-4.971 0-9-6-9s-6 4.029-6 9c0 3.096 1.797 6.191 4 7.432v1.649c-6.784 0.555-12 3.888-12 7.918h28c0-4.030-5.216-7.364-12-7.918z"></path>
</symbol>

<symbol id="icon-search" viewBox="0 0 55 55">
    <title>search</title>
    <path stroke="#ffffff" d="m53.77735,52.63457l-15.48126,-15.55685c3.94872,-3.82654 6.39504,-9.10176 6.39504,
    -14.9196c0,-11.65782 -9.81449,-21.14113 -21.87943,-21.14113s-21.87943,9.48331 -21.87943,21.14113s9.81449,
    21.14113 21.87943,21.14113c5.29586,0 10.15622,-1.82921 13.94449,-4.86447l15.51877,15.59511c0.20421,
    0.20638 0.47718,0.30906 0.75119,0.30906c0.26047,0 0.5199,-0.09363 0.72202,-0.28088c0.41467,-0.38557 0.42717,
    -1.02283 0.02917,-1.4235zm-30.96564,-11.34876c-10.91575,0 -19.79567,-8.58028 -19.79567,-19.12769s8.87992,
    -19.12769 19.79567,-19.12769s19.79567,8.58028 19.79567,19.12769s-8.88096,19.12769 -19.79567,19.12769z"/>
</symbol>

<symbol id="icon-lock" viewBox="0 0 32 32">
    <title>lock</title>
    <path class="path1" d="M18.5 14h-0.5v-6c0-3.308-2.692-6-6-6h-4c-3.308 0-6 2.692-6 6v6h-0.5c-0.825 0-1.5 0.675-1.5 1.5v15c0 0.825 0.675 1.5 1.5 1.5h17c0.825 0 1.5-0.675 1.5-1.5v-15c0-0.825-0.675-1.5-1.5-1.5zM6 8c0-1.103 0.897-2 2-2h4c1.103 0 2 0.897 2 2v6h-8v-6z"></path>
</symbol>

<symbol id="icon-unlocked" viewBox="0 0 32 32">
    <title>unlocked</title>
    <path class="path1" d="M24 2c3.308 0 6 2.692 6 6v6h-4v-6c0-1.103-0.897-2-2-2h-4c-1.103 0-2 0.897-2 2v6h0.5c0.825 0 1.5 0.675 1.5 1.5v15c0 0.825-0.675 1.5-1.5 1.5h-17c-0.825 0-1.5-0.675-1.5-1.5v-15c0-0.825 0.675-1.5 1.5-1.5h12.5v-6c0-3.308 2.692-6 6-6h4z"></path>
</symbol>

<symbol id="icon-settings" viewBox="0 0 32 32">
    <title>settings</title>
    <path class="path1" d="M29.181 19.070c-1.679-2.908-0.669-6.634 2.255-8.328l-3.145-5.447c-0.898 0.527-1.943 0.829-3.058 0.829-3.361 0-6.085-2.742-6.085-6.125h-6.289c0.008 1.044-0.252 2.103-0.811 3.070-1.679 2.908-5.411 3.897-8.339 2.211l-3.144 5.447c0.905 0.515 1.689 1.268 2.246 2.234 1.676 2.903 0.672 6.623-2.241 8.319l3.145 5.447c0.895-0.522 1.935-0.82 3.044-0.82 3.35 0 6.067 2.725 6.084 6.092h6.289c-0.003-1.034 0.259-2.080 0.811-3.038 1.676-2.903 5.399-3.894 8.325-2.219l3.145-5.447c-0.899-0.515-1.678-1.266-2.232-2.226zM16 22.479c-3.578 0-6.479-2.901-6.479-6.479s2.901-6.479 6.479-6.479c3.578 0 6.479 2.901 6.479 6.479s-2.901 6.479-6.479 6.479z"></path>
</symbol>

<symbol id="icon-stats-dots" viewBox="0 0 32 32">
    <title>stats-dots</title>
    <path class="path1" d="M4 28h28v4h-32v-32h4zM9 26c-1.657 0-3-1.343-3-3s1.343-3 3-3c0.088 0 0.176 0.005 0.262 0.012l3.225-5.375c-0.307-0.471-0.487-1.033-0.487-1.638 0-1.657 1.343-3 3-3s3 1.343 3 3c0 0.604-0.179 1.167-0.487 1.638l3.225 5.375c0.086-0.007 0.174-0.012 0.262-0.012 0.067 0 0.133 0.003 0.198 0.007l5.324-9.316c-0.329-0.482-0.522-1.064-0.522-1.691 0-1.657 1.343-3 3-3s3 1.343 3 3c0 1.657-1.343 3-3 3-0.067 0-0.133-0.003-0.198-0.007l-5.324 9.316c0.329 0.481 0.522 1.064 0.522 1.691 0 1.657-1.343 3-3 3s-3-1.343-3-3c0-0.604 0.179-1.167 0.487-1.638l-3.225-5.375c-0.086 0.007-0.174 0.012-0.262 0.012s-0.176-0.005-0.262-0.012l-3.225 5.375c0.307 0.471 0.487 1.033 0.487 1.637 0 1.657-1.343 3-3 3z"></path>
</symbol>

<symbol id="icon-plus" viewBox="0 0 32 32">
    <title>plus</title>
    <path class="path1" d="M31 12h-11v-11c0-0.552-0.448-1-1-1h-6c-0.552 0-1 0.448-1 1v11h-11c-0.552 0-1 0.448-1 1v6c0 0.552 0.448 1 1 1h11v11c0 0.552 0.448 1 1 1h6c0.552 0 1-0.448 1-1v-11h11c0.552 0 1-0.448 1-1v-6c0-0.552-0.448-1-1-1z"></path>
</symbol>

<symbol id="icon-minus" viewBox="0 0 32 32">
    <title>minus</title>
    <path class="path1" d="M0 13v6c0 0.552 0.448 1 1 1h30c0.552 0 1-0.448 1-1v-6c0-0.552-0.448-1-1-1h-30c-0.552 0-1 0.448-1 1z"></path>
</symbol>

<symbol id="icon-info" viewBox="0 0 32 32">
    <title>info</title>
    <path class="path1" d="M14 9.5c0-0.825 0.675-1.5 1.5-1.5h1c0.825 0 1.5 0.675 1.5 1.5v1c0 0.825-0.675 1.5-1.5 1.5h-1c-0.825 0-1.5-0.675-1.5-1.5v-1z"></path>
    <path class="path2" d="M20 24h-8v-2h2v-6h-2v-2h6v8h2z"></path>
    <path class="path3" d="M16 0c-8.837 0-16 7.163-16 16s7.163 16 16 16 16-7.163 16-16-7.163-16-16-16zM16 29c-7.18 0-13-5.82-13-13s5.82-13 13-13 13 5.82 13 13-5.82 13-13 13z"></path>
</symbol>

<symbol id="icon-cross" viewBox="0 0 20 20">
    <title>cross</title>
    <path id="svg_1" d="m15.898,4.045c-0.271,-0.272 -0.713,-0.272 -0.986,0l-4.71,4.711l-4.709,-4.711c-0.272,-0.272 -0.714,-0.272 -0.986,0s-0.272,0.714 0,0.986l4.709,4.711l-4.71,4.711c-0.272,0.271 -0.272,0.713 0,0.986c0.136,0.136 0.314,0.203 0.492,0.203c0.179,0 0.357,-0.067 0.493,-0.203l4.711,-4.711l4.71,4.711c0.137,0.136 0.314,0.203 0.494,0.203c0.178,0 0.355,-0.067 0.492,-0.203c0.273,-0.273 0.273,-0.715 0,-0.986l-4.711,-4.711l4.711,-4.711c0.274,-0.272 0.274,-0.714 0,-0.986z"/>
</symbol>

<symbol id="icon-checkmark" viewBox="0 0 32 32">
    <title>checkmark</title>
    <path class="path1" d="M27 4l-15 15-7-7-5 5 12 12 20-20z"></path>
</symbol>

<symbol id="icon-checkmark2" viewBox="0 0 32 32">
    <title>checkmark2</title>
    <path class="path1" d="M12.42 28.678l-12.433-12.238 6.168-6.071 6.265 6.167 13.426-13.214 6.168 6.071-19.594 19.285zM3.372 16.441l9.048 8.905 16.208-15.953-2.782-2.739-13.426 13.214-6.265-6.167-2.782 2.739z"></path>
</symbol>

<symbol id="icon-arrow-up2" viewBox="0 0 32 32">
    <title>arrow-up2</title>
    <path class="path1" d="M27.414 12.586l-10-10c-0.781-0.781-2.047-0.781-2.828 0l-10 10c-0.781 0.781-0.781 2.047 0 2.828s2.047 0.781 2.828 0l6.586-6.586v19.172c0 1.105 0.895 2 2 2s2-0.895 2-2v-19.172l6.586 6.586c0.39 0.39 0.902 0.586 1.414 0.586s1.024-0.195 1.414-0.586c0.781-0.781 0.781-2.047 0-2.828z"></path>
</symbol>

<symbol id="icon-arrow-right2" viewBox="0 0 32 32">
    <title>arrow-right2</title>
    <path class="path1" d="M19.414 27.414l10-10c0.781-0.781 0.781-2.047 0-2.828l-10-10c-0.781-0.781-2.047-0.781-2.828 0s-0.781 2.047 0 2.828l6.586 6.586h-19.172c-1.105 0-2 0.895-2 2s0.895 2 2 2h19.172l-6.586 6.586c-0.39 0.39-0.586 0.902-0.586 1.414s0.195 1.024 0.586 1.414c0.781 0.781 2.047 0.781 2.828 0z"></path>
</symbol>


<symbol id="icon-right-angle" viewBox="0 0 20 20">
    <title>right-angle</title>
    <path d="M11.611,10.049l-4.76-4.873c-0.303-0.31-0.297-0.804,0.012-1.105c0.309-0.304,0.803-0.293,1.105,0.012l5.306,5.433c0.304,0.31,0.296,0.805-0.012,1.105L7.83,15.928c-0.152,0.148-0.35,0.223-0.547,0.223c-0.203,0-0.406-0.08-0.559-0.236c-0.303-0.309-0.295-0.803,0.012-1.104L11.611,10.049z"></path>
</symbol>

<symbol id="icon-arrow-down2" viewBox="0 0 32 32">
    <title>arrow-down2</title>
    <path class="path1" d="M27.414 19.414l-10 10c-0.781 0.781-2.047 0.781-2.828 0l-10-10c-0.781-0.781-0.781-2.047 0-2.828s2.047-0.781 2.828 0l6.586 6.586v-19.172c0-1.105 0.895-2 2-2s2 0.895 2 2v19.172l6.586-6.586c0.39-0.39 0.902-0.586 1.414-0.586s1.024 0.195 1.414 0.586c0.781 0.781 0.781 2.047 0 2.828z"></path>
</symbol>

<symbol id="icon-arrow-left2" viewBox="0 0 32 32">
    <title>arrow-left2</title>
    <path class="path1" d="M12.586 27.414l-10-10c-0.781-0.781-0.781-2.047 0-2.828l10-10c0.781-0.781 2.047-0.781 2.828 0s0.781 2.047 0 2.828l-6.586 6.586h19.172c1.105 0 2 0.895 2 2s-0.895 2-2 2h-19.172l6.586 6.586c0.39 0.39 0.586 0.902 0.586 1.414s-0.195 1.024-0.586 1.414c-0.781 0.781-2.047 0.781-2.828 0z"></path>
</symbol>

<symbol id="icon-radio-checked" viewBox="0 0 32 32">
    <title>radio-checked</title>
    <path class="path1" d="M16 0c-8.837 0-16 7.163-16 16s7.163 16 16 16 16-7.163 16-16-7.163-16-16-16zM16 28c-6.627 0-12-5.373-12-12s5.373-12 12-12c6.627 0 12 5.373 12 12s-5.373 12-12 12zM10 16c0-3.314 2.686-6 6-6s6 2.686 6 6c0 3.314-2.686 6-6 6s-6-2.686-6-6z"></path>
</symbol>

<symbol id="icon-radio-unchecked" viewBox="0 0 32 32">
    <title>radio-unchecked</title>
    <path class="path1" d="M16 0c-8.837 0-16 7.163-16 16s7.163 16 16 16 16-7.163 16-16-7.163-16-16-16zM16 28c-6.627 0-12-5.373-12-12s5.373-12 12-12c6.627 0 12 5.373 12 12s-5.373 12-12 12z"></path>
</symbol>

<symbol id="icon-open-link" viewBox="0 0 20 20">
    <title>open-link</title>
    <path d="M16.198,10.896c-0.252,0-0.455,0.203-0.455,0.455v2.396c0,0.626-0.511,1.137-1.138,1.137H5.117c-0.627,0-1.138-0.511-1.138-1.137V7.852c0-0.626,0.511-1.137,1.138-1.137h5.315c0.252,0,0.456-0.203,0.456-0.455c0-0.251-0.204-0.455-0.456-0.455H5.117c-1.129,0-2.049,0.918-2.049,2.047v5.894c0,1.129,0.92,2.048,2.049,2.048h9.488c1.129,0,2.048-0.919,2.048-2.048v-2.396C16.653,11.099,16.45,10.896,16.198,10.896z"></path>
    <path d="M14.053,4.279c-0.207-0.135-0.492-0.079-0.63,0.133c-0.137,0.211-0.077,0.493,0.134,0.63l1.65,1.073c-4.115,0.62-5.705,4.891-5.774,5.082c-0.084,0.236,0.038,0.495,0.274,0.581c0.052,0.019,0.103,0.027,0.154,0.027c0.186,0,0.361-0.115,0.429-0.301c0.014-0.042,1.538-4.023,5.238-4.482l-1.172,1.799c-0.137,0.21-0.077,0.492,0.134,0.629c0.076,0.05,0.163,0.074,0.248,0.074c0.148,0,0.294-0.073,0.382-0.207l1.738-2.671c0.066-0.101,0.09-0.224,0.064-0.343c-0.025-0.118-0.096-0.221-0.197-0.287L14.053,4.279z"></path>
</symbol>


</defs>
</svg>
